<mxfile host="app.diagrams.net" agent="Mozilla/5.0 (X11; Linux x86_64; rv:136.0) Gecko/20100101 Firefox/136.0" version="26.1.3">
  <diagram name="Page-1" id="e56a1550-8fbb-45ad-956c-1786394a9013">
    <mxGraphModel dx="3300" dy="2244" grid="0" gridSize="10" guides="1" tooltips="1" connect="1" arrows="1" fold="1" page="0" pageScale="1" pageWidth="1100" pageHeight="850" background="none" math="0" shadow="0">
      <root>
        <mxCell id="0" />
        <mxCell id="1" parent="0" />
        <mxCell id="OetlIyJgvli4n9BQYhPO-2" value="&lt;div&gt;ESP32&lt;/div&gt;&lt;div&gt;1- temp&lt;/div&gt;&lt;div&gt;2- humidity&lt;/div&gt;&lt;div&gt;3- microphone&lt;/div&gt;&lt;div&gt;4- weight scale&lt;/div&gt;&lt;div&gt;&lt;br&gt;&lt;/div&gt;&lt;div&gt;5- power by batteries&lt;/div&gt;" style="ellipse;whiteSpace=wrap;html=1;aspect=fixed;" vertex="1" parent="1">
          <mxGeometry x="634" y="22" width="183" height="183" as="geometry" />
        </mxCell>
        <mxCell id="OetlIyJgvli4n9BQYhPO-4" value="ESP32 arduino board good amount of inputs + wifi + bluetooth + deepsleep mode + 0.5A" style="text;html=1;align=center;verticalAlign=middle;resizable=0;points=[];autosize=1;strokeColor=none;fillColor=none;" vertex="1" parent="1">
          <mxGeometry x="512.5" y="-26" width="489" height="26" as="geometry" />
        </mxCell>
        <mxCell id="OetlIyJgvli4n9BQYhPO-5" value="&lt;div&gt;Raspberry PI zero+ GSM module + wifi + bluetooth&lt;/div&gt;" style="whiteSpace=wrap;html=1;aspect=fixed;" vertex="1" parent="1">
          <mxGeometry x="286.5" y="176" width="80" height="80" as="geometry" />
        </mxCell>
        <mxCell id="OetlIyJgvli4n9BQYhPO-8" value="&lt;div&gt;every 15m it wakes up takes data sends it to the master then sleeps for another 15m again&lt;/div&gt;" style="text;html=1;align=center;verticalAlign=middle;resizable=0;points=[];autosize=1;strokeColor=none;fillColor=none;" vertex="1" parent="1">
          <mxGeometry x="508" y="-4" width="498" height="26" as="geometry" />
        </mxCell>
        <mxCell id="OetlIyJgvli4n9BQYhPO-9" value="Power by battery + solar " style="text;html=1;align=center;verticalAlign=middle;resizable=0;points=[];autosize=1;strokeColor=none;fillColor=none;" vertex="1" parent="1">
          <mxGeometry x="255" y="136" width="147" height="26" as="geometry" />
        </mxCell>
        <mxCell id="OetlIyJgvli4n9BQYhPO-10" value="always on power or we can just wake it up for 5m each 10m" style="text;html=1;align=center;verticalAlign=middle;resizable=0;points=[];autosize=1;strokeColor=none;fillColor=none;" vertex="1" parent="1">
          <mxGeometry x="183" y="110" width="334" height="26" as="geometry" />
        </mxCell>
        <mxCell id="OetlIyJgvli4n9BQYhPO-11" value="&lt;div&gt;ESP32&lt;/div&gt;&lt;div&gt;1- temp&lt;/div&gt;&lt;div&gt;2- humidity&lt;/div&gt;&lt;div&gt;3- microphone&lt;/div&gt;&lt;div&gt;4- weight scale&lt;/div&gt;&lt;div&gt;&lt;br&gt;&lt;/div&gt;&lt;div&gt;5- power by batteries&lt;/div&gt;" style="ellipse;whiteSpace=wrap;html=1;aspect=fixed;" vertex="1" parent="1">
          <mxGeometry x="629" y="239" width="183" height="183" as="geometry" />
        </mxCell>
        <mxCell id="OetlIyJgvli4n9BQYhPO-14" value="" style="endArrow=classic;html=1;rounded=0;entryX=0.986;entryY=0.59;entryDx=0;entryDy=0;entryPerimeter=0;exitX=-0.002;exitY=0.591;exitDx=0;exitDy=0;exitPerimeter=0;" edge="1" parent="1" source="OetlIyJgvli4n9BQYhPO-2" target="OetlIyJgvli4n9BQYhPO-5">
          <mxGeometry width="50" height="50" relative="1" as="geometry">
            <mxPoint x="513" y="312" as="sourcePoint" />
            <mxPoint x="563" y="262" as="targetPoint" />
          </mxGeometry>
        </mxCell>
        <mxCell id="OetlIyJgvli4n9BQYhPO-15" value="" style="endArrow=classic;html=1;rounded=0;" edge="1" parent="1">
          <mxGeometry width="50" height="50" relative="1" as="geometry">
            <mxPoint x="628" y="319" as="sourcePoint" />
            <mxPoint x="367" y="233" as="targetPoint" />
          </mxGeometry>
        </mxCell>
        <mxCell id="OetlIyJgvli4n9BQYhPO-16" value="&lt;div&gt;AWS IoT core SDK&lt;/div&gt;&lt;div&gt;check manuall action on the esp 32 and also in the rasperry pi in case of deepsleep mode&lt;/div&gt;" style="text;html=1;align=center;verticalAlign=middle;whiteSpace=wrap;rounded=0;" vertex="1" parent="1">
          <mxGeometry x="-222" y="70" width="300" height="95" as="geometry" />
        </mxCell>
        <mxCell id="OetlIyJgvli4n9BQYhPO-18" value="" style="endArrow=classic;html=1;rounded=0;" edge="1" parent="1">
          <mxGeometry width="50" height="50" relative="1" as="geometry">
            <mxPoint x="290" y="224" as="sourcePoint" />
            <mxPoint x="-8" y="224" as="targetPoint" />
          </mxGeometry>
        </mxCell>
        <mxCell id="OetlIyJgvli4n9BQYhPO-19" value="aws iot core" style="ellipse;whiteSpace=wrap;html=1;aspect=fixed;" vertex="1" parent="1">
          <mxGeometry x="-90" y="183" width="80" height="80" as="geometry" />
        </mxCell>
        <mxCell id="OetlIyJgvli4n9BQYhPO-20" value="" style="endArrow=classic;html=1;rounded=0;" edge="1" parent="1">
          <mxGeometry width="50" height="50" relative="1" as="geometry">
            <mxPoint x="-90" y="222.29" as="sourcePoint" />
            <mxPoint x="-388" y="222.29" as="targetPoint" />
          </mxGeometry>
        </mxCell>
        <mxCell id="OetlIyJgvli4n9BQYhPO-21" value="AWS timeseries(influxdb)" style="ellipse;whiteSpace=wrap;html=1;aspect=fixed;" vertex="1" parent="1">
          <mxGeometry x="-520" y="149" width="134" height="134" as="geometry" />
        </mxCell>
        <mxCell id="OetlIyJgvli4n9BQYhPO-22" value="BE python" style="ellipse;whiteSpace=wrap;html=1;aspect=fixed;" vertex="1" parent="1">
          <mxGeometry x="-501" y="351" width="151" height="151" as="geometry" />
        </mxCell>
        <mxCell id="OetlIyJgvli4n9BQYhPO-23" value="Relational DB" style="rounded=1;whiteSpace=wrap;html=1;" vertex="1" parent="1">
          <mxGeometry x="-284" y="372" width="120" height="106" as="geometry" />
        </mxCell>
        <mxCell id="OetlIyJgvli4n9BQYhPO-24" value="FE react" style="ellipse;whiteSpace=wrap;html=1;aspect=fixed;" vertex="1" parent="1">
          <mxGeometry x="-501" y="553" width="138" height="138" as="geometry" />
        </mxCell>
        <mxCell id="OetlIyJgvli4n9BQYhPO-25" value="Relational DB" style="rounded=1;whiteSpace=wrap;html=1;" vertex="1" parent="1">
          <mxGeometry x="60" y="908" width="120" height="106" as="geometry" />
        </mxCell>
        <mxCell id="OetlIyJgvli4n9BQYhPO-26" value="No SQL DB" style="rounded=1;whiteSpace=wrap;html=1;" vertex="1" parent="1">
          <mxGeometry x="-124" y="941" width="120" height="106" as="geometry" />
        </mxCell>
        <mxCell id="OetlIyJgvli4n9BQYhPO-27" value="User" style="swimlane;fontStyle=0;childLayout=stackLayout;horizontal=1;startSize=26;horizontalStack=0;resizeParent=1;resizeParentMax=0;resizeLast=0;collapsible=1;marginBottom=0;align=center;fontSize=14;" vertex="1" parent="1">
          <mxGeometry x="36" y="1309" width="160" height="56" as="geometry" />
        </mxCell>
        <mxCell id="OetlIyJgvli4n9BQYhPO-28" value="Item 1" style="text;strokeColor=none;fillColor=none;spacingLeft=4;spacingRight=4;overflow=hidden;rotatable=0;points=[[0,0.5],[1,0.5]];portConstraint=eastwest;fontSize=12;whiteSpace=wrap;html=1;" vertex="1" parent="OetlIyJgvli4n9BQYhPO-27">
          <mxGeometry y="26" width="160" height="30" as="geometry" />
        </mxCell>
        <mxCell id="OetlIyJgvli4n9BQYhPO-31" value="Apiary" style="swimlane;fontStyle=0;childLayout=stackLayout;horizontal=1;startSize=26;horizontalStack=0;resizeParent=1;resizeParentMax=0;resizeLast=0;collapsible=1;marginBottom=0;align=center;fontSize=14;" vertex="1" parent="1">
          <mxGeometry x="355" y="1413" width="160" height="116" as="geometry" />
        </mxCell>
        <mxCell id="OetlIyJgvli4n9BQYhPO-32" value="id" style="text;strokeColor=none;fillColor=none;spacingLeft=4;spacingRight=4;overflow=hidden;rotatable=0;points=[[0,0.5],[1,0.5]];portConstraint=eastwest;fontSize=12;whiteSpace=wrap;html=1;" vertex="1" parent="OetlIyJgvli4n9BQYhPO-31">
          <mxGeometry y="26" width="160" height="30" as="geometry" />
        </mxCell>
        <mxCell id="OetlIyJgvli4n9BQYhPO-33" value="brand_id" style="text;strokeColor=none;fillColor=none;spacingLeft=4;spacingRight=4;overflow=hidden;rotatable=0;points=[[0,0.5],[1,0.5]];portConstraint=eastwest;fontSize=12;whiteSpace=wrap;html=1;" vertex="1" parent="OetlIyJgvli4n9BQYhPO-31">
          <mxGeometry y="56" width="160" height="30" as="geometry" />
        </mxCell>
        <mxCell id="OetlIyJgvli4n9BQYhPO-34" value="Item 3" style="text;strokeColor=none;fillColor=none;spacingLeft=4;spacingRight=4;overflow=hidden;rotatable=0;points=[[0,0.5],[1,0.5]];portConstraint=eastwest;fontSize=12;whiteSpace=wrap;html=1;" vertex="1" parent="OetlIyJgvli4n9BQYhPO-31">
          <mxGeometry y="86" width="160" height="30" as="geometry" />
        </mxCell>
        <mxCell id="OetlIyJgvli4n9BQYhPO-35" value="Brand" style="swimlane;fontStyle=0;childLayout=stackLayout;horizontal=1;startSize=26;horizontalStack=0;resizeParent=1;resizeParentMax=0;resizeLast=0;collapsible=1;marginBottom=0;align=center;fontSize=14;" vertex="1" parent="1">
          <mxGeometry x="305" y="1188" width="160" height="56" as="geometry" />
        </mxCell>
        <mxCell id="OetlIyJgvli4n9BQYhPO-36" value="id" style="text;strokeColor=none;fillColor=none;spacingLeft=4;spacingRight=4;overflow=hidden;rotatable=0;points=[[0,0.5],[1,0.5]];portConstraint=eastwest;fontSize=12;whiteSpace=wrap;html=1;" vertex="1" parent="OetlIyJgvli4n9BQYhPO-35">
          <mxGeometry y="26" width="160" height="30" as="geometry" />
        </mxCell>
        <mxCell id="OetlIyJgvli4n9BQYhPO-39" style="edgeStyle=orthogonalEdgeStyle;rounded=0;orthogonalLoop=1;jettySize=auto;html=1;exitX=0.5;exitY=0;exitDx=0;exitDy=0;entryX=0.827;entryY=1.033;entryDx=0;entryDy=0;entryPerimeter=0;" edge="1" parent="1" source="OetlIyJgvli4n9BQYhPO-31" target="OetlIyJgvli4n9BQYhPO-36">
          <mxGeometry relative="1" as="geometry">
            <mxPoint x="435" y="1304" as="targetPoint" />
            <Array as="points">
              <mxPoint x="437" y="1413" />
            </Array>
          </mxGeometry>
        </mxCell>
        <mxCell id="OetlIyJgvli4n9BQYhPO-41" value="&lt;div&gt;GET/POST/PUT /users?limit=10&amp;amp;offset=10&lt;/div&gt;&lt;div&gt;req:&lt;/div&gt;&lt;div&gt;{&lt;/div&gt;&lt;div&gt;&quot;user_name&quot;:&quot;firas&quot;&lt;/div&gt;&lt;div&gt;}&lt;/div&gt;&lt;div&gt;response:&lt;/div&gt;&lt;div&gt;{&quot;data&quot;:&quot;success&quot;}&lt;/div&gt;" style="text;html=1;align=left;verticalAlign=middle;resizable=0;points=[];autosize=1;strokeColor=none;fillColor=none;" vertex="1" parent="1">
          <mxGeometry x="915" y="1222" width="247" height="113" as="geometry" />
        </mxCell>
      </root>
    </mxGraphModel>
  </diagram>
</mxfile>
